<svg t="1663558076867" class="icon" viewBox="0 0 1024 1024" version="1.1" xmlns="http://www.w3.org/2000/svg" p-id="7083" width="32" height="32"><path d="M398.02 467.9l10.57-10.57 25.27-25.27 30.29-30.29 25.62-25.62c3.76-3.76 7.51-7.53 11.28-11.28 1.28-1.27 2.62-2.46 4.04-3.57-1.69 1.3-3.37 2.61-5.06 3.91 2.96-2.28 6.17-4.16 9.6-5.62l-5.97 2.52a44.23 44.23 0 0 1 10.83-2.95c-2.22 0.3-4.43 0.6-6.65 0.89 3.83-0.5 7.68-0.5 11.51 0-2.22-0.3-4.43-0.6-6.65-0.89 3.73 0.52 7.35 1.51 10.83 2.95l-5.97-2.52c3.43 1.46 6.64 3.34 9.6 5.62-1.69-1.3-3.37-2.61-5.06-3.91 4.67 3.66 8.64 8.32 12.76 12.57 7.86 8.12 15.73 16.23 23.59 24.35 9.74 10.05 19.48 20.11 29.22 30.16 8.56 8.83 17.12 17.66 25.67 26.49 4.15 4.28 8.27 8.6 12.45 12.85l0.18 0.18c2.26 2.44 4.95 4.16 8.05 5.17 2.98 1.57 6.19 2.28 9.63 2.15 3.44 0.13 6.65-0.59 9.63-2.15 3.1-1.01 5.78-2.73 8.05-5.17 4.37-4.76 7.62-11.02 7.32-17.68-0.3-2.22-0.6-4.43-0.89-6.65-1.19-4.24-3.33-7.91-6.43-11.03-4.13-4.26-8.25-8.52-12.38-12.77-9.48-9.78-18.96-19.57-28.44-29.35l-31.95-32.97c-7.66-7.9-15.32-15.81-22.98-23.71-1.35-1.4-2.69-2.8-4.06-4.19-1.1-1.11-2.27-2.16-3.48-3.14-3.68-2.96-7.42-6.01-11.6-8.26-4.2-2.26-8.67-4.14-13.22-5.59-4.62-1.47-9.45-1.98-14.24-2.57-2.63-0.32-5.27-0.42-7.92-0.27-4.85 0.29-9.77 0.91-14.49 2.09-4.56 1.14-8.93 3.1-13.19 5.03-2.6 1.17-5.07 2.61-7.38 4.27-4.46 3.22-8.52 6.6-12.36 10.44l-20.22 20.22-31.74 31.74-30.73 30.73-17.46 17.46-0.82 0.82c-2.44 2.26-4.16 4.95-5.17 8.05-1.57 2.98-2.28 6.19-2.15 9.63-0.13 3.44 0.59 6.65 2.15 9.63 1.01 3.1 2.73 5.78 5.17 8.05 4.76 4.37 11.02 7.62 17.68 7.32 6.62-0.28 12.88-2.52 17.67-7.3z" p-id="7084" fill="#707070"></path><path d="M488.59 334.66V694.14c0 4.86-0.03 9.72 0 14.57v0.64c0 6.41 2.79 13.14 7.32 17.68 4.34 4.34 11.45 7.6 17.68 7.32 6.47-0.29 13.17-2.41 17.68-7.32 4.49-4.89 7.32-10.9 7.32-17.68v-10.09-27.21-40.35-49.23-53.73-54.6-50.56-42.88-30.83c0-4.86 0.03-9.72 0-14.57v-0.64c0-6.41-2.79-13.14-7.32-17.68-4.34-4.34-11.45-7.6-17.68-7.32-6.47 0.29-13.17 2.41-17.68 7.32-4.48 4.89-7.32 10.9-7.32 17.68z" p-id="7085" fill="#707070"></path><path d="M786.77 825.68H257.35c-6.57 0-13.14 0.02-19.7 0a73.25 73.25 0 0 1-8.88-0.55c2.22 0.3 4.43 0.6 6.65 0.89-5.74-0.8-11.29-2.32-16.64-4.56l5.97 2.52a67.105 67.105 0 0 1-13.79-8.07c1.69 1.3 3.37 2.61 5.06 3.91a67.807 67.807 0 0 1-11.85-11.85c1.3 1.69 2.61 3.37 3.91 5.06a76591182022511300 76591182022511300 0 0 0-10.11-24.46c0.3 2.22 0.6 4.43 0.89 6.65-0.88-7.06-0.55-14.33-0.55-21.43v-39.31-59.59-72.63-80.44-80.89-75.26-63.23-44.79c0-6.65-0.02-13.31 0-19.96 0.01-2.98 0.18-5.94 0.55-8.9-0.3 2.22-0.6 4.43-0.89 6.65 0.8-5.74 2.32-11.29 4.56-16.64l-2.52 5.97c2.14-4.92 4.83-9.51 8.07-13.79-1.3 1.69-2.61 3.37-3.91 5.06 3.46-4.44 7.41-8.39 11.85-11.85-1.69 1.3-3.37 2.61-5.06 3.91 4.28-3.24 8.87-5.93 13.79-8.07l-5.97 2.52c5.35-2.24 10.9-3.76 16.64-4.56-2.22 0.3-4.43 0.6-6.65 0.89 7.06-0.88 14.33-0.55 21.43-0.55h516.14c6.65 0 13.31-0.02 19.96 0 2.98 0.01 5.94 0.18 8.9 0.55-2.22-0.3-4.43-0.6-6.65-0.89 5.74 0.8 11.29 2.32 16.64 4.56l-5.97-2.52c4.92 2.14 9.51 4.83 13.79 8.07-1.69-1.3-3.37-2.61-5.06-3.91 4.44 3.46 8.39 7.41 11.85 11.85-1.3-1.69-2.61-3.37-3.91-5.06 3.24 4.28 5.93 8.87 8.07 13.79l-2.52-5.97c2.24 5.35 3.76 10.9 4.56 16.64-0.3-2.22-0.6-4.43-0.89-6.65 0.88 7.06 0.55 14.33 0.55 21.43v516.14c0 6.65 0.02 13.31 0 19.96-0.01 2.98-0.18 5.94-0.55 8.9 0.3-2.22 0.6-4.43 0.89-6.65-0.8 5.74-2.32 11.29-4.56 16.64l2.52-5.97a67.105 67.105 0 0 1-8.07 13.79c1.3-1.69 2.61-3.37 3.91-5.06a67.807 67.807 0 0 1-11.85 11.85c1.69-1.3 3.37-2.61 5.06-3.91a67.105 67.105 0 0 1-13.79 8.07l5.97-2.52a66.792 66.792 0 0 1-16.64 4.56c2.22-0.3 4.43-0.6 6.65-0.89-2.79 0.35-5.6 0.53-8.43 0.55-13.07 0.1-25.61 11.43-25 25 0.6 13.46 10.99 25.1 25 25 24.97-0.18 50.55-10.91 66.74-30.28 14-16.75 22.05-36.83 22.16-58.82 0.03-6.97 0-13.95 0-20.92v-49.91-70.45-83.43-88.04-84.21-72.68-53.26c0-8.47 0.01-16.94 0-25.41-0.02-14.8-3.47-28.77-10.02-42-10.93-22.05-32.79-39.13-56.57-45.12-11.83-2.98-23.44-2.83-35.42-2.83H241.49c-2.21 0-4.43-0.04-6.64 0.04-25.03 0.91-50.01 12.16-65.75 31.96-8.39 10.56-15.03 22.21-18.16 35.47-1.67 7.06-2.58 14.44-2.61 21.71-0.01 2.23 0 4.46 0 6.7V785.86c0.02 15.25 3.69 29.99 10.84 43.46 11.51 21.68 33.53 38.65 57.53 43.96 7.62 1.68 15.4 2.41 23.19 2.41H786.79c13.08 0 25.6-11.5 25-25-0.62-13.55-11-25.01-25.02-25.01z" p-id="7086" fill="#707070"></path></svg>