<?xml version="1.0" encoding="utf-8"?>
<svg version="1.1" xmlns:xlink="http://www.w3.org/1999/xlink" width="60px" height="35px" xmlns="http://www.w3.org/2000/svg">
  <g transform="matrix(1 0 0 1 -480 -297 )">
    <path d="M 497.5 330.839804172287  L 480.693344279933 314.5  L 497.5 298.160195827713  L 497.5 306.95  L 522.5 306.95  L 522.5 298.160195827713  L 539.306655720067 314.5  L 522.5 330.839804172287  L 522.5 322.05  L 497.5 322.05  L 497.5 330.839804172287  Z " fill-rule="nonzero" fill="#ffffff" stroke="none" />
    <path d="M 498 332  L 480 314.5  L 498 297  L 498 306.45  L 522 306.45  L 522 297  L 540 314.5  L 522 332  L 522 322.55  L 498 322.55  L 498 332  Z M 481.386688559867 314.5  L 497 329.679608344574  L 497 321.55  L 523 321.55  L 523 329.679608344574  L 538.613311440133 314.5  L 523 299.320391655426  L 523 307.45  L 497 307.45  L 497 299.320391655426  L 481.386688559867 314.5  Z " fill-rule="nonzero" fill="#797979" stroke="none" />
  </g>
</svg>