<?xml version="1.0" standalone="no"?><!DOCTYPE svg PUBLIC "-//W3C//DTD SVG 1.1//EN" "http://www.w3.org/Graphics/SVG/1.1/DTD/svg11.dtd"><svg t="1642502115098" class="icon" viewBox="0 0 1024 1024" version="1.1" xmlns="http://www.w3.org/2000/svg" p-id="5382" xmlns:xlink="http://www.w3.org/1999/xlink" width="200" height="200"><defs><style type="text/css"></style></defs><path d="M512 921.6c-226.2 0-409.6-183.4-409.6-409.6S285.8 102.4 512 102.4 921.6 285.8 921.6 512 738.2 921.6 512 921.6z m239-535.3c-15-14.9-39.2-14.9-54.1 0L480.3 601.7 372 494.1c-15-14.9-39.2-14.9-54.1 0-14.9 14.9-14.9 39 0 53.8l135.4 134.6c15 14.9 39.2 14.9 54.2 0L751 440.1c15-14.8 15-38.9 0-53.8z" fill="#43B91A" p-id="5383"></path></svg>