<svg version="1.1" xmlns:xlink="http://www.w3.org/1999/xlink" width="14px" height="14px" xmlns="http://www.w3.org/2000/svg">
  <g transform="matrix(1 0 0 1 -601 -133 )">
    <path d="M 0.2928899999999999 6.65696  C 0.10536000000000012 6.4694199999999995  0 6.215070000000001  0 5.94985  L 2.0000000000131024E-05 0  L 5.94975 0.00010000000000021103  C 6.214969999999999 0.00010000000000021103  6.46931 0.10545999999999989  6.65685 0.2929900000000001  L 12.7903 6.4264600000000005  C 13.1808 6.816979999999999  13.1808 7.450139999999999  12.7903 7.840669999999999  L 7.84057 12.7904  C 7.4500399999999996 13.1809  6.816879999999999 13.1809  6.426349999999999 12.7904  L 0.2928899999999999 6.65696  Z M 12.0832 7.13356  L 5.94974 1.0001000000000002  L 1.0000200000000001 1.0000200000000001  L 1 5.94985  L 7.1334599999999995 12.0833  L 12.0832 7.13356  Z " fill-rule="nonzero" fill="#000000" stroke="none" fill-opacity="0.4" transform="matrix(1 0 0 1 601 133 )" />
  </g>
</svg>