<?xml version="1.0" encoding="UTF-8"?>
<svg width="167px" height="117px" viewBox="0 0 167 117" version="1.1" xmlns="http://www.w3.org/2000/svg" xmlns:xlink="http://www.w3.org/1999/xlink">
    <title>编组 10</title>
    <g id="客户群列表" stroke="none" stroke-width="1" fill="none" fill-rule="evenodd">
        <g id="3.列表空状态" transform="translate(-772.000000, -481.000000)" fill-rule="nonzero">
            <g id="编组-10" transform="translate(772.000000, 481.000000)">
                <path d="M64,117 C99.346,117 128,111.627 128,105 C128,98.373 99.346,93 64,93 C28.654,93 0,98.373 0,105 C0,111.627 28.654,117 64,117 Z" id="路径" fill="#F7F7F9"></path>
                <rect id="矩形" fill="#DCE0E7" x="24" y="9" width="82" height="82" rx="8"></rect>
                <rect id="矩形" fill="#F5F5F7" x="30" y="15" width="70" height="70" rx="6"></rect>
                <path d="M81.684,46.086 C83.169,44.525 84.061,42.653 84.061,40.468 C84.061,36.411 80.792,32.979 76.93,32.979 C78.415,34.851 79.307,37.348 79.307,40.156 C79.307,43.277 77.821,46.398 75.741,48.27 C80.495,50.455 83.764,54.824 84.952,60.129 L87.924,60.129 L87.924,57.008 C88.518,52.015 85.547,47.958 81.684,46.086 Z" id="路径" fill="#D8DEE4"></path>
                <path d="M53.25,48.266 C51.17,46.081 49.684,43.273 49.684,39.84 C49.684,37.031 50.576,34.535 52.061,32.662 C48.199,32.974 45.227,36.407 45.227,40.464 C45.227,42.648 46.119,44.833 47.605,46.081 C43.742,47.954 40.771,52.323 40.771,57.004 L40.771,60.124 L43.742,60.124 C45.227,54.819 48.496,50.45 53.25,48.266 Z" id="路径" fill="#D8DEE4"></path>
                <path d="M71.477,48.269 C73.557,46.396 75.043,43.276 75.043,40.155 C75.043,34.226 70.289,29.232 64.643,29.232 C58.998,29.232 54.244,34.226 54.244,40.155 C54.244,43.276 55.729,46.396 57.809,48.269 C52.164,51.077 48.004,57.319 48.004,64.184 L48.004,66.993 L81.58,66.993 L81.58,64.184 C81.283,57.319 77.42,51.077 71.477,48.269 Z" id="路径" fill="#B5BEC7"></path>
                <path d="M124.417,-5.68434189e-14 L163.58,-5.68434189e-14 C165.46,-5.68434189e-14 167,1.538 167,3.417 L167,29.896 C167,31.775 165.46,33.312 163.58,33.312 L137.34,33.312 L131.5,33.312 L129.59,33.312 L124.417,33.312 C122.538,33.312 121,31.775 121,29.896 L121,27.5 L115.5,26.5 L121,22 L121,3.417 C121,1.538 122.538,-5.68434189e-14 124.417,-5.68434189e-14 Z" id="路径" fill="#DCE0E7"></path>
                <path d="M126.98,2.563 L161.02,2.563 C162.9,2.563 164.44,4.101 164.44,5.98 L164.44,27.334 C164.44,29.213 162.9,30.751 161.02,30.751 L126.98,30.751 C125.1,30.751 123.562,29.213 123.562,27.334 L123.562,5.98 C123.562,4.101 125.1,2.563 126.98,2.563 Z" id="路径" fill="#F5F5F7"></path>
                <path d="M154.47,17.254 L131.4,17.254 C130.71,17.254 130.11,16.656 130.11,15.973 C130.11,15.29 130.71,14.692 131.4,14.692 L154.47,14.692 C155.16,14.692 155.76,15.29 155.76,15.973 C155.76,16.656 155.24,17.254 154.47,17.254 Z M156.6,10.236 L131.4,10.236 C130.71,10.236 130.11,9.638 130.11,8.955 C130.11,8.272 130.71,7.674 131.4,7.674 L156.6,7.674 C157.29,7.674 157.89,8.272 157.89,8.955 C157.89,9.638 157.29,10.236 156.6,10.236 Z" id="形状" fill="#B5BEC7" opacity="0.8"></path>
                <path d="M131.28,24.562 L141.36,24.562 C142.13,24.562 142.64,23.965 142.64,23.281 C142.64,22.598 142.04,22 141.36,22 L131.28,22 C130.6,22 130,22.598 130,23.281 C130,23.965 130.6,24.562 131.28,24.562 Z" id="路径" fill="#D8DEE4" opacity="0.8"></path>
            </g>
        </g>
    </g>
</svg>