<svg width="128" height="122" viewBox="0 0 128 122" fill="none" xmlns="http://www.w3.org/2000/svg">
<path d="M64 122C99.3462 122 128 116.627 128 110C128 103.373 99.3462 98 64 98C28.6538 98 0 103.373 0 110C0 116.627 28.6538 122 64 122Z" fill="#F7F7F9"/>
<path opacity="0.5" fill-rule="evenodd" clip-rule="evenodd" d="M3.50697 38.7226C2.9093 37.1915 3.65492 35.4645 5.17914 34.8496L72.8383 7.55202C74.3748 6.9321 76.1229 7.67515 76.7428 9.21166L107.132 84.5337C107.839 86.2854 106.77 88.2466 104.915 88.6025L46.3036 99.8475C45.7775 99.9485 45.2339 99.9067 44.7294 99.7265L25.7881 92.9621C24.9697 92.6699 24.3184 92.0372 24.0024 91.2278L3.50697 38.7226Z" fill="#EFF2F5"/>
<g filter="url(#filter0_d)">
<path fill-rule="evenodd" clip-rule="evenodd" d="M26 15.9995C26 15.4472 26.4477 14.9995 27 14.9995H103.925C104.477 14.9995 104.925 15.4472 104.925 15.9995V101.867C104.925 102.42 104.477 102.867 103.925 102.867H27C26.4477 102.867 26 102.42 26 101.867V15.9995Z" fill="#F5F5F7"/>
<path d="M27 12.4995C25.067 12.4995 23.5 14.0665 23.5 15.9995V101.867C23.5 103.8 25.067 105.367 27 105.367H103.925C105.858 105.367 107.425 103.8 107.425 101.867V15.9995C107.425 14.0665 105.858 12.4995 103.925 12.4995H27Z" stroke="#DCE0E7" stroke-width="5"/>
</g>
<rect opacity="0.9" x="34.7925" y="28.075" width="30.1509" height="18" fill="#E2E4EA"/>
<rect opacity="0.9" x="35" y="53.9998" width="61" height="3.54717" fill="#E8EAEE"/>
<rect opacity="0.9" x="35" y="64.9998" width="22" height="3.54717" fill="#E8EAEE"/>
<rect opacity="0.9" x="70" y="30.9995" width="26" height="3.54717" fill="#E2E4EA"/>
<rect opacity="0.9" x="70" y="38.9995" width="16" height="3.54717" fill="#E2E4EA"/>
<path opacity="0.9" fill-rule="evenodd" clip-rule="evenodd" d="M86.9655 64.8662C91.7829 68.938 92.6764 76.0218 89.0211 81.1622H89.0189L90.9492 83.0947C92.3444 82.7201 93.8335 83.1189 94.8547 84.1407L101.815 91.0965C102.837 92.1181 103.236 93.607 102.862 95.0024C102.488 96.3978 101.398 97.4877 100.003 97.8616C98.6072 98.2355 97.1182 97.8366 96.0966 96.8151L89.1403 89.857C88.0807 88.7997 87.7342 87.3014 88.0942 85.9539L86.1639 84.0192C81.0231 87.6743 73.939 86.7808 69.8669 81.9638C65.7948 77.1467 66.0934 70.013 70.5537 65.553C75.014 61.093 82.1481 60.7944 86.9655 64.8662ZM87.1951 74.2922C87.1951 72.1966 86.3624 70.1869 84.8802 68.7053C83.3987 67.2228 81.3887 66.3898 79.2927 66.3898C77.1967 66.3898 75.1866 67.2228 73.7051 68.7053C72.223 70.1869 71.3902 72.1966 71.3902 74.2922C71.3902 76.3878 72.223 78.3975 73.7051 79.8791C75.1866 81.3616 77.1967 82.1946 79.2927 82.1946C81.3887 82.1946 83.3987 81.3616 84.8802 79.8791C86.3624 78.3975 87.1951 76.3878 87.1951 74.2922Z" fill="#AEB8C2"/>
<defs>
<filter id="filter0_d" x="19" y="7.99951" width="92.9245" height="101.868" filterUnits="userSpaceOnUse" color-interpolation-filters="sRGB">
<feFlood flood-opacity="0" result="BackgroundImageFix"/>
<feColorMatrix in="SourceAlpha" type="matrix" values="0 0 0 0 0 0 0 0 0 0 0 0 0 0 0 0 0 0 127 0"/>
<feOffset/>
<feGaussianBlur stdDeviation="1"/>
<feColorMatrix type="matrix" values="0 0 0 0 0 0 0 0 0 0 0 0 0 0 0 0 0 0 0.0612434 0"/>
<feBlend mode="normal" in2="BackgroundImageFix" result="effect1_dropShadow"/>
<feBlend mode="normal" in="SourceGraphic" in2="effect1_dropShadow" result="shape"/>
</filter>
</defs>
</svg>
