<?xml version="1.0" standalone="no"?><!DOCTYPE svg PUBLIC "-//W3C//DTD SVG 1.1//EN" "http://www.w3.org/Graphics/SVG/1.1/DTD/svg11.dtd"><svg t="1642502026625" class="icon" viewBox="0 0 1024 1024" version="1.1" xmlns="http://www.w3.org/2000/svg" p-id="3820" xmlns:xlink="http://www.w3.org/1999/xlink" width="200" height="200"><defs><style type="text/css"></style></defs><path d="M511.7 0.6C229 0.6 0 229.7 0 512.3S229.1 1024 511.7 1024s511.7-229.1 511.7-511.7S794.3 0.6 511.7 0.6z m0 827c-28.7 0-52-23.6-52-52.8 0-29.2 23.3-52.9 52-52.9s52 23.6 52 52.9c0 29.2-23.3 52.8-52 52.8z m57.8-247.1c0 32.5-25.9 58.7-57.8 58.7-32 0-57.8-26.3-57.8-58.7V255.7c0-32.5 25.9-58.7 57.8-58.7 32 0 57.8 26.3 57.8 58.7v324.8z" p-id="3821" data-spm-anchor-id="a313x.7781069.0.i14" class="" fill="#bfbfbf"></path></svg>