<svg version="1.1" xmlns:xlink="http://www.w3.org/1999/xlink" width="18px" height="18px" xmlns="http://www.w3.org/2000/svg">
  <g transform="matrix(1 0 0 1 -581 -104 )">
    <path d="M 8.999997547694615 18  C 13.97056061880929 18.00000122615269  17.999998773847306 13.97056552342006  18 9.00000306538173  C 18.00000122615269 4.029440300805228  13.97056552342006 0  9.00000306538173 0  C 4.029440300805228 0  0 4.029434783118112  0 8.999997547694615  C 0 13.97056061880929  4.029434783118112 17.999998773847306  8.999997547694615 18  Z M 8.357140404837471 3.8575324671609064  L 9.642854690551758 3.8575324671609064  L 9.642854690551758 10.928564071655273  L 8.357140404837471 10.928564071655273  L 8.357140404837471 3.8575324671609064  Z M 8.221223831176758 14.399992397853307  L 8.221223831176758 12.8571355002267  L 9.76408072880336 12.8571355002267  L 9.76408072880336 14.399992397853307  L 8.221223831176758 14.399992397853307  Z " fill-rule="nonzero" fill="#ed7b2f" stroke="none" transform="matrix(1 0 0 1 581 104 )" />
  </g>
</svg>